HIERARCHY
ROOT Hips
{
	OFFSET 0.000000 0.000000 0.000000
	CHANNELS 6 Xposition Yposition Zposition Xrotation Yrotation Zrotation
	JOINT LeftUpLeg_virtual
	{
		OFFSET 0.000000 0.000000 0.000000
		CHANNELS 3 Xrotation Yrotation Zrotation
		JOINT LeftUpLeg
		{
			OFFSET 11.394100 -6.187798 -0.413800
			CHANNELS 3 Xrotation Yrotation Zrotation
			JOINT LeftLeg
			{
				OFFSET 0.430247 -32.302673 3.732800
				CHANNELS 3 Xrotation Yrotation Zrotation
				JOINT LeftFoot
				{
					OFFSET -0.430247 -48.264931 -6.423300
					CHANNELS 3 Xrotation Yrotation Zrotation
					JOINT LeftToeBase
					{
						OFFSET 4.230900 -16.068199 23.438400
						CHANNELS 3 Xrotation Yrotation Zrotation
						JOINT LeftToe_End
						{
							OFFSET 4.510700 0.695400 19.974600
							CHANNELS 3 Xrotation Yrotation Zrotation
							End Site
							{
								OFFSET 0 0 0
							}
						}
					}
				}
			}
		}
	}
	JOINT RightUpLeg_virtual
	{
		OFFSET 0.000000 0.000000 0.000000
		CHANNELS 3 Xrotation Yrotation Zrotation
		JOINT RightUpLeg
		{
			OFFSET -11.333700 -6.187798 -0.413800
			CHANNELS 3 Xrotation Yrotation Zrotation
			JOINT RightLeg
			{
				OFFSET -0.430392 -32.302628 3.733000
				CHANNELS 3 Xrotation Yrotation Zrotation
				JOINT RightFoot
				{
					OFFSET 0.430392 -48.264973 -6.423500
					CHANNELS 3 Xrotation Yrotation Zrotation
					JOINT RightToeBase
					{
						OFFSET -4.230900 -16.068199 23.438400
						CHANNELS 3 Xrotation Yrotation Zrotation
						JOINT RightToe_End
						{
							OFFSET -4.510700 0.695400 19.974600
							CHANNELS 3 Xrotation Yrotation Zrotation
							End Site
							{
								OFFSET 0 0 0
							}
						}
					}
				}
			}
		}
	}
	JOINT Spine_virtual
	{
		OFFSET 0.000000 0.000000 0.000000
		CHANNELS 3 Xrotation Yrotation Zrotation
		JOINT Spine
		{
			OFFSET -0.002400 12.777504 0.315300
			CHANNELS 3 Xrotation Yrotation Zrotation
			JOINT Spine1
			{
				OFFSET -0.002067 5.816869 0.032633
				CHANNELS 3 Xrotation Yrotation Zrotation
				JOINT Spine1_split
				{
					OFFSET -0.002067 5.816869 0.032633
					CHANNELS 3 Xrotation Yrotation Zrotation
					JOINT Spine2
					{
						OFFSET -0.002067 5.816869 0.032633
						CHANNELS 3 Xrotation Yrotation Zrotation
						JOINT Neck_virtual
						{
							OFFSET 0.000000 0.000000 0.000000
							CHANNELS 3 Xrotation Yrotation Zrotation
							JOINT Neck
							{
								OFFSET -0.003700 21.199493 -0.826900
								CHANNELS 3 Xrotation Yrotation Zrotation
								JOINT Head
								{
									OFFSET 0.000000 20.442200 4.834800
									CHANNELS 3 Xrotation Yrotation Zrotation
									JOINT HeadTop_End
									{
										OFFSET 0.000000 34.668396 4.968400
										CHANNELS 3 Xrotation Yrotation Zrotation
										End Site
										{
											OFFSET 0 0 0
										}
									}
								}
							}
						}
						JOINT LeftShoulder_virtual
						{
							OFFSET 0.000000 0.000000 0.000000
							CHANNELS 3 Xrotation Yrotation Zrotation
							JOINT LeftShoulder
							{
								OFFSET 3.288150 8.794197 -1.372250
								CHANNELS 3 Xrotation Yrotation Zrotation
								JOINT LeftShoulder_split
								{
									OFFSET 3.288150 8.794197 -1.372250
									CHANNELS 3 Xrotation Yrotation Zrotation
									JOINT LeftArm
									{
										OFFSET 11.953299 -2.279007 -0.146200
										CHANNELS 3 Xrotation Yrotation Zrotation
										JOINT LeftForeArm
										{
											OFFSET 18.448900 0.000000 0.000000
											CHANNELS 3 Xrotation Yrotation Zrotation
											JOINT LeftHand
											{
												OFFSET 29.527798 0.000000 0.000000
												CHANNELS 3 Xrotation Yrotation Zrotation
												End Site
												{
													OFFSET 0 0 0
												}
											}
										}
									}
								}
							}
						}
						JOINT RightShoulder_virtual
						{
							OFFSET 0.000000 0.000000 0.000000
							CHANNELS 3 Xrotation Yrotation Zrotation
							JOINT RightShoulder
							{
								OFFSET -3.249400 8.794197 -1.372250
								CHANNELS 3 Xrotation Yrotation Zrotation
								JOINT RightShoulder_split
								{
									OFFSET -3.249400 8.794197 -1.372250
									CHANNELS 3 Xrotation Yrotation Zrotation
									JOINT RightArm
									{
										OFFSET -11.953299 -2.279007 -0.146200
										CHANNELS 3 Xrotation Yrotation Zrotation
										JOINT RightForeArm
										{
											OFFSET -18.448900 0.000000 0.000000
											CHANNELS 3 Xrotation Yrotation Zrotation
											JOINT RightHand
											{
												OFFSET -29.527802 0.000000 0.000000
												CHANNELS 3 Xrotation Yrotation Zrotation
												End Site
												{
													OFFSET 0 0 0
												}
											}
										}
									}
								}
							}
						}
					}
				}
			}
		}
	}
}
MOTION
Frames: 8
Frame Time: 0.03333333
3.713244 90.287979 120.382401 0.000000 0.000000 0.000000 3.845118 -3.242976 -2.579467 -58.657555 0.670971 7.071733 35.726315 0.189742 4.295892 7.354350 -12.294777 -1.348798 2.176907 -3.089547 -1.585813 0.000000 0.000000 0.000000 4.252032 1.054288 -2.187324 -23.204123 1.660311 6.383645 42.918262 -1.590910 -3.896479 -24.433888 -0.464245 -2.507564 2.070247 -0.285248 -1.666885 0.000000 0.000000 0.000000 1.697622 1.204311 -1.622336 17.486333 2.758087 -0.746616 18.983305 6.842966 3.728742 0.948679 -4.125643 1.907922 0.000000 0.000000 0.000000 17.796843 7.826984 2.848191 -46.579377 20.693258 -27.845148 40.077942 -39.782642 40.933460 0.000000 0.000000 0.000000 19.474852 7.177291 3.410554 -2.092623 -12.731525 -7.625260 -3.999030 3.508490 -5.992641 -11.364753 -1.277534 -57.627296 -1.669665 -69.062071 -3.851726 0.000000 0.000000 0.000000 18.084073 8.027871 3.468808 0.104120 19.731687 6.893197 -2.699451 4.928653 8.775081 -56.082936 6.102267 31.801323 -170.262600 81.721506 169.654714 0.000000 0.000000 0.000000 
3.420914 90.763214 118.836472 0.000000 0.000000 0.000000 1.687186 -3.125081 -3.362854 -55.993116 0.085355 8.759808 35.450704 2.783381 4.153588 4.125506 -10.113536 -3.339375 0.005454 -3.343315 -0.394608 0.000000 0.000000 0.000000 2.431301 0.415985 -2.894557 -23.565363 1.205593 6.746155 42.717390 -0.918254 -3.974381 -21.926927 -0.111756 -2.469847 1.921532 -0.287516 -2.194076 0.000000 0.000000 0.000000 -0.256523 1.327993 -2.636687 17.429652 2.696028 -0.276450 18.166906 6.549874 3.722066 0.831604 -4.245167 1.750903 0.000000 0.000000 0.000000 16.995321 7.639591 2.796284 -47.226325 19.475620 -27.027484 40.608743 -38.312969 40.469065 0.000000 0.000000 0.000000 18.639518 6.938066 3.391790 -1.638288 -11.705525 -7.054129 -3.833100 3.598523 -5.897149 -13.908311 -1.231262 -59.510632 -0.394881 -63.465612 -2.796406 0.000000 0.000000 0.000000 17.259961 7.771528 3.493250 -0.008190 17.367959 8.703626 -2.066494 4.699496 8.405805 -59.253715 7.486312 30.992581 -169.812040 82.281766 169.400876 0.000000 0.000000 0.000000 
3.143903 91.015312 117.369751 0.000000 0.000000 0.000000 -0.221553 -3.000844 -4.015884 -53.409713 -0.217223 10.435662 36.876680 4.479740 3.897782 1.416585 -8.688702 -5.900153 -2.739246 -3.677726 1.611301 0.000000 0.000000 0.000000 0.911044 0.012382 -3.518166 -23.997123 1.154953 7.160427 43.352109 -0.284732 -4.119091 -20.074343 -0.061260 -2.655044 1.858755 -0.370492 -2.516777 0.000000 0.000000 0.000000 -1.999277 1.613152 -3.571228 17.309682 2.631916 0.293498 17.391509 6.129355 3.640535 0.734228 -4.613533 1.532969 0.000000 0.000000 0.000000 16.251774 7.284144 2.713902 -47.777935 18.065987 -25.949159 40.596865 -36.953325 39.228082 0.000000 0.000000 0.000000 17.882914 6.562678 3.304462 -1.168010 -10.733498 -6.599958 -3.734697 3.741500 -5.743959 -16.415921 -0.833844 -61.024421 0.649102 -58.064900 -1.969900 0.000000 0.000000 0.000000 16.574999 7.367833 3.416286 -0.004559 15.035526 10.414450 -1.526649 4.593532 8.187515 -63.757951 8.227363 30.369094 -170.104919 82.501814 169.859619 0.000000 0.000000 0.000000 
2.932184 91.016563 115.877121 0.000000 0.000000 0.000000 -1.715530 -2.857057 -4.600714 -50.591758 -0.263909 11.867709 40.180913 5.665438 3.361703 -1.160504 -7.623540 -8.050939 -4.848901 -4.015152 3.537232 0.000000 0.000000 0.000000 -0.363176 -0.152676 -4.144477 -24.573206 1.275274 7.693580 44.713506 0.233155 -4.247493 -18.862314 -0.335073 -3.055458 1.818882 -0.518037 -2.466389 0.000000 0.000000 0.000000 -3.383332 2.033076 -4.437661 17.053229 2.548074 0.984527 16.620796 5.575638 3.498840 0.526085 -4.903824 1.333889 0.000000 0.000000 0.000000 15.533503 6.756465 2.600781 -48.084142 16.449892 -24.668654 40.133710 -35.740348 37.387339 0.000000 0.000000 0.000000 17.160531 6.045448 3.170001 -0.698231 -9.818499 -6.255381 -3.640012 3.881925 -5.573760 -18.360066 -0.128210 -62.119457 1.478976 -53.564092 -1.348038 0.000000 0.000000 0.000000 15.967797 6.804955 3.252336 0.125932 12.774312 11.781110 -0.984541 4.597239 8.014837 -69.349479 8.128413 29.948720 -171.687118 81.794316 171.557577 0.000000 0.000000 0.000000 
2.834870 90.823296 114.312454 0.000000 0.000000 0.000000 -2.757259 -2.548659 -5.258933 -47.473565 -0.425083 12.970685 45.150112 6.794719 2.428600 -3.361149 -6.620665 -8.994245 -6.322066 -4.112051 4.481641 0.000000 0.000000 0.000000 -1.424342 0.000033 -4.828424 -25.221964 1.410975 8.310034 46.347802 0.636570 -4.326679 -18.189994 -0.794050 -3.541360 1.945167 -0.667488 -2.060966 0.000000 0.000000 0.000000 -4.401615 2.627399 -5.273078 16.612436 2.391278 1.789157 15.817711 4.911577 3.332778 0.344889 -5.083474 1.161890 0.000000 0.000000 0.000000 14.814142 6.091867 2.470304 -48.012569 14.652515 -23.277823 39.317823 -34.793988 35.247137 0.000000 0.000000 0.000000 16.432899 5.408545 3.020584 -0.257239 -9.052176 -5.975339 -3.477834 3.976524 -5.420482 -19.452628 0.825268 -62.821853 2.161620 -50.486272 -0.857094 0.000000 0.000000 0.000000 15.355635 6.094274 3.046710 0.360918 10.608095 12.614946 -0.234644 4.580011 7.894716 -75.890539 7.266654 29.681342 -173.898788 79.784328 173.829885 0.000000 0.000000 0.000000 
2.855133 90.496307 112.561462 0.000000 0.000000 0.000000 -3.482298 -2.248757 -6.022285 -44.566742 -1.236664 14.072196 51.837570 7.613222 1.315243 -3.691980 -5.756109 -8.929496 -8.024924 -3.831644 3.646647 0.000000 0.000000 0.000000 -2.241077 0.457222 -5.605349 -25.921000 1.443255 8.956831 47.840124 0.933321 -4.367147 -17.873686 -1.302623 -4.027088 2.161576 -0.773324 -1.435519 0.000000 0.000000 0.000000 -5.026040 3.281667 -6.111189 15.984746 2.134336 2.673023 14.957436 4.161724 3.178452 0.136517 -5.022933 1.054743 0.000000 0.000000 0.000000 14.075727 5.342574 2.344653 -47.525901 12.725617 -21.913383 38.210148 -34.285248 33.111507 0.000000 0.000000 0.000000 15.648341 4.697758 2.903175 0.129373 -8.491795 -5.708556 -3.173242 3.948789 -5.353356 -19.529736 1.884612 -63.170596 2.700909 -49.154235 -0.462175 0.000000 0.000000 0.000000 14.673068 5.290541 2.847090 0.663671 8.557394 12.762282 0.707319 4.601746 7.743525 -83.057095 5.938369 29.449535 -175.522379 76.703216 175.464869 0.000000 0.000000 0.000000 
2.976515 90.073921 110.875076 0.000000 0.000000 0.000000 -4.022965 -2.241299 -6.833189 -41.945954 -2.671777 15.388693 59.556763 7.957944 0.255809 -1.220310 -5.104738 -8.244703 -10.738031 -3.119914 0.876660 0.000000 0.000000 0.000000 -2.809489 1.018044 -6.463478 -26.664201 1.343243 9.529826 48.780118 1.111320 -4.359343 -17.539272 -1.766318 -4.300775 2.059074 -0.823519 -0.823931 0.000000 0.000000 0.000000 -5.311964 3.921258 -6.964675 15.208439 1.773078 3.564528 14.067060 3.371055 3.066967 0.058062 -4.746503 1.098646 0.000000 0.000000 0.000000 13.290839 4.573799 2.253862 -46.628281 10.808989 -20.670458 36.925478 -34.283346 31.230466 0.000000 0.000000 0.000000 14.816757 3.950480 2.844280 0.445717 -8.238563 -5.429493 -2.738689 3.883815 -5.363556 -18.682430 2.930573 -63.150843 3.168840 -49.436629 -0.093237 0.000000 0.000000 0.000000 13.894037 4.455122 2.703771 0.973376 6.702593 12.240105 1.526960 4.481783 7.619220 -90.471258 4.733586 29.073643 -176.324052 73.429383 176.243783 0.000000 0.000000 0.000000 
3.115547 89.623962 109.115799 0.000000 0.000000 0.000000 -4.557756 -2.590166 -7.639946 -38.883246 -3.996350 16.932176 66.417497 8.125420 -0.414961 2.629032 -4.548636 -6.778575 -15.369392 -1.987690 -3.000191 0.000000 0.000000 0.000000 -3.193089 1.502466 -7.290365 -27.523470 1.142142 9.917053 49.036967 1.239632 -4.355884 -16.745667 -2.085799 -4.256574 1.440020 -0.828840 -0.465561 0.000000 0.000000 0.000000 -5.388014 4.438297 -7.789515 14.377316 1.309448 4.364663 13.165213 2.582145 3.011769 0.195795 -4.551583 1.137219 0.000000 0.000000 0.000000 12.471078 3.840289 2.208077 -45.344758 8.976519 -19.629948 35.595247 -34.829351 29.748831 0.000000 0.000000 0.000000 13.946347 3.210921 2.845145 0.681207 -8.366545 -5.135213 -2.301916 3.880389 -5.459861 -17.117135 3.970282 -62.785011 3.552450 -50.735977 0.268853 0.000000 0.000000 0.000000 13.055149 3.659203 2.641432 1.248883 5.044439 11.173400 2.069227 4.325934 7.421414 -97.495104 4.075050 28.519511 -176.469426 71.093622 176.333805 0.000000 0.000000 0.000000 
